<?xml version="1.0" standalone="no"?>
<!DOCTYPE svg PUBLIC "-//W3C//DTD SVG 20010904//EN"
 "http://www.w3.org/TR/2001/REC-SVG-20010904/DTD/svg10.dtd">
<svg version="1.0" xmlns="http://www.w3.org/2000/svg"
 width="106.000000pt" height="106.000000pt" viewBox="0 0 106.000000 106.000000"
 preserveAspectRatio="xMidYMid meet">
<metadata>
Created by potrace 1.14, written by Peter Selinger 2001-2017
</metadata>
<g transform="translate(0.000000,106.000000) scale(0.100000,-0.100000)"
fill="#000000" stroke="none">
<path d="M395 1041 c-92 -26 -153 -60 -222 -125 -117 -109 -175 -245 -169
-399 5 -128 31 -205 104 -302 106 -142 257 -215 432 -210 124 4 184 22 275 81
66 43 83 59 133 123 71 90 103 179 107 302 10 236 -132 443 -356 520 -85 29
-221 34 -304 10z"/>
</g>
</svg>
